<svg xmlns="http://www.w3.org/2000/svg" width="22" height="22" viewBox="0 0 22 22">
    <g fill="none" fill-rule="evenodd">
        <g fill="#000">
            <g>
                <path d="M13.353 4.5c.98.185 1.705.378 2.173.58.467.2 1.045.567 1.734 1.1 1.43 2.834 2.198 5.787 2.302 8.859-1.229 1.469-2.91 2.289-5.043 2.461l-.638-.939c1.158-.56 2.036-1.092 2.634-1.593-1.131.791-3.15 1.318-5.452 1.318-2.5 0-4.664-.621-5.722-1.527l-.029-.001c.543.515 1.392 1.064 2.547 1.644l.322.16-.638.938c-2.133-.172-3.814-.992-5.043-2.461.105-3.072.872-6.025 2.303-8.86.688-.532 1.266-.898 1.734-1.1.42-.18 1.05-.355 1.886-.523l.286-.056.143.425c-1.171.264-2.259.852-3.262 1.766l-.014.012.154-.114C6.833 5.815 8.81 5.3 11.063 5.3c2.149 0 4.044.47 5.172 1.183-.937-.795-1.945-1.314-3.025-1.557l.143-.425zm-4.76 5.688c-.672 0-1.218.727-1.218 1.624 0 .898.546 1.626 1.219 1.626s1.219-.728 1.219-1.626c0-.897-.546-1.624-1.22-1.624zm4.959-.011c-.75 0-1.358.728-1.358 1.626 0 .898.608 1.625 1.358 1.625.75 0 1.358-.727 1.358-1.625s-.608-1.626-1.358-1.626z" transform="translate(-213 -116) translate(213 116)"/>
            </g>
        </g>
    </g>
</svg>
