<svg xmlns="http://www.w3.org/2000/svg" width="22" height="98" viewBox="0 0 22 98">
    <g fill="none" fill-rule="evenodd">
        <g fill="#000">
            <g>
                <path fill-rule="nonzero" d="M-19.8 41.856v-8.428h2.59v-1.302H-24v1.302h2.604v8.428h1.596zm9.576 0v-1.302h-3.78v-2.982h3.36V36.27h-3.36v-2.856h3.78v-1.302H-15.6v9.744h5.376zm6.846 0v-1.288h-3.29v-8.442h-1.596v9.73h4.886zm6.706 0v-1.302h-3.78v-2.982h3.36V36.27h-3.36v-2.856h3.78v-1.302h-5.376v9.744h5.376zm6.398.084c.85 0 1.622-.189 2.317-.567.695-.378 1.26-.884 1.694-1.519.434-.635.702-1.33.805-2.086v-1.246H9.18v1.274h3.654c-.121.83-.453 1.489-.994 1.974-.541.485-1.246.728-2.114.728-.644 0-1.218-.145-1.722-.434-.504-.29-.898-.702-1.183-1.239-.285-.537-.427-1.155-.427-1.855s.142-1.316.427-1.848c.285-.532.679-.943 1.183-1.232.504-.29 1.078-.434 1.722-.434.588 0 1.106.124 1.554.371.448.247.798.614 1.05 1.099h1.918c-.364-.933-.95-1.654-1.757-2.163-.807-.509-1.729-.763-2.765-.763-.905 0-1.738.212-2.499.637-.76.425-1.363 1.015-1.806 1.771-.443.756-.665 1.61-.665 2.562 0 .952.222 1.806.665 2.562.443.756 1.043 1.346 1.799 1.771.756.425 1.591.637 2.506.637zm7.98-.084v-3.892h1.218l2.24 3.892h1.904l-2.408-4.032c.765-.187 1.332-.539 1.701-1.057.369-.518.553-1.094.553-1.729 0-.541-.128-1.031-.385-1.47-.257-.439-.644-.789-1.162-1.05-.518-.261-1.15-.392-1.897-.392h-3.36v9.73h1.596zm1.764-5.166h-1.764v-3.262h1.764c.607 0 1.06.142 1.358.427.299.285.448.679.448 1.183s-.152.905-.455 1.204c-.303.299-.754.448-1.351.448zm6.58 5.166l.7-1.988h4.074l.7 1.988h1.68l-3.486-9.744H27.87l-3.486 9.744h1.666zm4.326-3.29h-3.178l1.596-4.522 1.582 4.522zm5.936 3.29v-6.664l2.982 6.664H40.4l2.968-6.664v6.664h1.596v-9.73h-1.708l-3.402 7.63-3.416-7.63h-1.722v9.73h1.596z" transform="translate(-320 -402) translate(320 402) rotate(-90 10.482 36.97)"/>
                <g>
                    <path d="M7.5 0C11.642 0 15 3.358 15 7.5c0 4.142-3.358 7.5-7.5 7.5C3.358 15 0 11.642 0 7.5 0 3.358 3.358 0 7.5 0zm4.48 4.207c-.058-.163-.236-.247-.399-.19l-9.353 3.34c-.093.034-.164.109-.193.203-.05.165.043.34.207.39l2.216.673.944 2.597c.013.037.032.07.058.099.113.13.31.143.44.03l1.35-1.177 2.572 1.776c.033.022.07.039.108.047.168.039.335-.066.373-.234l1.687-7.38c.013-.058.01-.118-.01-.174zm-2.065 1.32c.026-.015.06-.01.08.013.022.026.019.066-.007.088L5.844 9.195c-.006.005-.01.012-.011.02l-.163 1.497c-.001.012-.01.022-.021.026-.017.005-.034-.004-.04-.02L4.933 8.66c-.032-.097.008-.204.097-.256z" transform="translate(-320 -402) translate(320 402) rotate(-90 49.5 45.5)"/>
                </g>
            </g>
        </g>
    </g>
</svg>
