<svg xmlns="http://www.w3.org/2000/svg" width="22" height="91" viewBox="0 0 22 91">
    <g fill="none" fill-rule="evenodd">
        <g fill="#000">
            <g>
                <path fill-rule="nonzero" d="M-17.272 37.5c1.036 0 1.944-.194 2.723-.581.78-.387 1.381-.945 1.806-1.673.425-.728.637-1.587.637-2.576 0-.99-.212-1.855-.637-2.597-.425-.742-1.027-1.311-1.806-1.708-.78-.397-1.687-.595-2.723-.595h-3.178v9.73h3.178zm0-1.302h-1.582v-7.126h1.582c1.139 0 2.011.317 2.618.952.607.635.91 1.517.91 2.646 0 1.12-.303 1.988-.91 2.604-.607.616-1.48.924-2.618.924zm8.344 1.302v-9.73h-1.596v9.73h1.596zm5.306.098c.69 0 1.29-.133 1.799-.399.509-.266.896-.618 1.162-1.057.266-.439.399-.905.399-1.4 0-.616-.142-1.108-.427-1.477-.285-.369-.63-.642-1.036-.819-.406-.177-.931-.355-1.575-.532-.485-.13-.868-.252-1.148-.364-.28-.112-.511-.264-.693-.455-.182-.191-.273-.436-.273-.735 0-.439.145-.775.434-1.008.29-.233.663-.35 1.12-.35.504 0 .91.126 1.218.378.308.252.476.555.504.91h1.764c-.065-.821-.399-1.468-1.001-1.939-.602-.471-1.374-.707-2.317-.707-.663 0-1.246.112-1.75.336-.504.224-.896.546-1.176.966-.28.42-.42.91-.42 1.47 0 .607.14 1.092.42 1.456.28.364.618.632 1.015.805.397.173.912.343 1.547.511.504.13.898.252 1.183.364.285.112.523.27.714.476.191.205.287.471.287.798 0 .42-.154.763-.462 1.029-.308.266-.737.399-1.288.399-.532 0-.945-.135-1.239-.406-.294-.27-.46-.616-.497-1.036h-1.708c0 .56.15 1.05.448 1.47.299.42.71.744 1.232.973.523.229 1.11.343 1.764.343zm9.688-.014c1.036 0 1.958-.252 2.765-.756.807-.504 1.393-1.223 1.757-2.156H8.67c-.252.513-.602.896-1.05 1.148-.448.252-.966.378-1.554.378-.644 0-1.218-.147-1.722-.441-.504-.294-.898-.712-1.183-1.253-.285-.541-.427-1.171-.427-1.89 0-.719.142-1.349.427-1.89.285-.541.679-.957 1.183-1.246.504-.29 1.078-.434 1.722-.434.588 0 1.106.126 1.554.378.448.252.798.635 1.05 1.148h1.918c-.364-.933-.95-1.654-1.757-2.163-.807-.509-1.729-.763-2.765-.763-.905 0-1.738.212-2.499.637-.76.425-1.363 1.015-1.806 1.771-.443.756-.665 1.61-.665 2.562 0 .952.222 1.806.665 2.562.443.756 1.043 1.346 1.799 1.771.756.425 1.591.637 2.506.637zm10.822.014c.915 0 1.752-.212 2.513-.637.76-.425 1.36-1.017 1.799-1.778.439-.76.658-1.617.658-2.569s-.22-1.806-.658-2.562c-.439-.756-1.038-1.346-1.799-1.771-.76-.425-1.598-.637-2.513-.637-.905 0-1.738.212-2.499.637-.76.425-1.363 1.015-1.806 1.771-.443.756-.665 1.61-.665 2.562 0 .952.222 1.808.665 2.569.443.76 1.045 1.353 1.806 1.778.76.425 1.594.637 2.499.637zm0-1.386c-.644 0-1.218-.147-1.722-.441-.504-.294-.898-.714-1.183-1.26-.285-.546-.427-1.178-.427-1.897 0-.719.142-1.349.427-1.89.285-.541.679-.957 1.183-1.246.504-.29 1.078-.434 1.722-.434.644 0 1.218.145 1.722.434.504.29.898.705 1.183 1.246.285.541.427 1.171.427 1.89 0 .719-.142 1.351-.427 1.897-.285.546-.679.966-1.183 1.26-.504.294-1.078.441-1.722.441zm8.134 1.288v-3.892h1.218l2.24 3.892h1.904l-2.408-4.032c.765-.187 1.332-.539 1.701-1.057.369-.518.553-1.094.553-1.729 0-.541-.128-1.031-.385-1.47-.257-.439-.644-.789-1.162-1.05-.518-.261-1.15-.392-1.897-.392h-3.36v9.73h1.596zm1.764-5.166h-1.764v-3.262h1.764c.607 0 1.06.142 1.358.427.299.285.448.679.448 1.183s-.152.905-.455 1.204c-.303.299-.754.448-1.351.448zm8.666 5.166c1.036 0 1.944-.194 2.723-.581.78-.387 1.381-.945 1.806-1.673.425-.728.637-1.587.637-2.576 0-.99-.212-1.855-.637-2.597-.425-.742-1.027-1.311-1.806-1.708-.78-.397-1.687-.595-2.723-.595h-3.178v9.73h3.178zm0-1.302H33.87v-7.126h1.582c1.139 0 2.011.317 2.618.952.607.635.91 1.517.91 2.646 0 1.12-.303 1.988-.91 2.604-.607.616-1.48.924-2.618.924z" transform="translate(-320 -567) translate(320 567) rotate(-90 10.084 32.621)"/>
                <g>
                    <path d="M10.853 0c.98.185 1.705.378 2.173.58.467.2 1.045.567 1.734 1.1 1.43 2.834 2.198 5.787 2.303 8.859-1.23 1.469-2.91 2.289-5.044 2.461l-.638-.939c1.158-.56 2.036-1.092 2.634-1.593-1.131.791-3.15 1.318-5.452 1.318-2.5 0-4.664-.621-5.722-1.527l-.029-.001c.543.515 1.392 1.064 2.547 1.644l.322.16-.638.938C2.91 12.828 1.229 12.008 0 10.539c.105-3.072.872-6.025 2.303-8.86.688-.532 1.266-.898 1.734-1.1.42-.18 1.05-.355 1.886-.523L6.209 0l.143.425C5.181.69 4.093 1.277 3.09 2.191l-.014.012.154-.114C4.333 1.315 6.31.8 8.563.8c2.149 0 4.044.47 5.172 1.183C12.798 1.187 11.79.668 10.71.425L10.853 0zm-4.76 5.688c-.672 0-1.218.727-1.218 1.625 0 .897.546 1.625 1.219 1.625s1.218-.728 1.218-1.626c0-.897-.545-1.625-1.218-1.625zm4.959-.011c-.75 0-1.358.728-1.358 1.626 0 .898.608 1.625 1.358 1.625.75 0 1.358-.727 1.358-1.625s-.608-1.626-1.358-1.626z" transform="translate(-320 -567) translate(320 567) rotate(-90 46.5 42)"/>
                </g>
            </g>
        </g>
    </g>
</svg>
