<svg xmlns="http://www.w3.org/2000/svg" width="22" height="81" viewBox="0 0 22 81">
    <g fill="none" fill-rule="evenodd">
        <g fill="#000">
            <g>
                <g fill-rule="nonzero">
                    <path d="M-19.005 32.949v-8.428h2.59v-1.302h-6.79v1.302h2.604v8.428h1.596zm6.174.014l1.792-.014 2.17-7.364 2.044 7.364h1.806l2.884-9.73h-1.708l-2.03 7.882-2.03-7.882h-1.792l-2.184 7.924-2.016-7.924h-1.694l2.758 9.744zm13.608-.014v-9.73H-.819v9.73H.777zm5.796 0v-8.428h2.59v-1.302h-6.79v1.302h2.604v8.428h1.596zm7.896 0v-8.428h2.59v-1.302h-6.79v1.302h2.604v8.428h1.596zm9.576 0v-1.302h-3.78v-2.982h3.36v-1.302h-3.36v-2.856h3.78v-1.302h-5.376v9.744h5.376zm3.556 0v-3.892h1.218l2.24 3.892h1.904l-2.408-4.032c.765-.187 1.332-.539 1.701-1.057.369-.518.553-1.094.553-1.729 0-.541-.128-1.031-.385-1.47-.257-.439-.644-.789-1.162-1.05-.518-.261-1.15-.392-1.897-.392h-3.36v9.73h1.596zm1.764-5.166h-1.764v-3.262h1.764c.607 0 1.06.142 1.358.427.299.285.448.679.448 1.183s-.152.905-.455 1.204c-.303.299-.754.448-1.351.448z" transform="translate(-320 -243) translate(320 243) translate(4.751 2.051) rotate(-90 4.879 28.084)"/>
                </g>
                <g>
                    <path d="M14.797 0c-.312.737-.713 1.237-1.202 1.502.458.027.986-.09 1.584-.355-.435.594-.904 1.062-1.408 1.404-.124.084-.26.127-.41.128.021.144.032.294.032.446 0 .106-.005.212-.016.315l.016-.002c-.299 4.154-1.932 6.888-4.901 8.204-2.969 1.316-5.8 1.118-8.492-.594 1.397.232 2.86-.177 4.387-1.224-1.596-.34-2.503-1.076-2.722-2.207.37.09.778.09 1.222 0C1.32 7.064.55 6.05.577 4.573c.292.183.715.294 1.268.334C.478 3.68.206 2.342 1.028.893c1.708 2.023 3.895 3.08 6.563 3.172l-.309-.015c-.09-.292-.14-.603-.14-.925C7.143 1.399 8.543 0 10.269 0c.732 0 1.405.252 1.938.673.106-.021.228-.022.363-.002.57.083 1.313-.141 2.228-.671z" transform="translate(-320 -243) translate(320 243) rotate(-90 41.9 37.1)"/>
                </g>
            </g>
        </g>
    </g>
</svg>
