<svg xmlns="http://www.w3.org/2000/svg" width="22" height="22" viewBox="0 0 22 22">
    <g fill="none" fill-rule="evenodd">
        <g fill="#000">
            <g>
                <path d="M18.797 4.8c-.312.737-.713 1.237-1.202 1.502.458.027.986-.09 1.584-.355-.435.594-.904 1.062-1.408 1.404-.124.084-.26.127-.41.128.021.144.032.294.032.446 0 .106-.005.212-.016.315l.016-.002c-.299 4.154-1.932 6.888-4.901 8.204-2.969 1.316-5.8 1.118-8.492-.594 1.397.232 2.86-.177 4.387-1.224-1.596-.34-2.503-1.076-2.722-2.207.37.09.778.09 1.222 0-1.566-.553-2.336-1.567-2.31-3.044.292.183.715.294 1.268.334-1.367-1.227-1.639-2.565-.817-4.014 1.708 2.023 3.895 3.08 6.563 3.172l-.309-.015c-.09-.292-.14-.603-.14-.925 0-1.726 1.4-3.125 3.126-3.125.732 0 1.405.252 1.938.673.106-.021.228-.022.363-.002.57.083 1.313-.141 2.228-.671z" transform="translate(-277 -116) translate(277 116)"/>
            </g>
        </g>
    </g>
</svg>
