<svg xmlns="http://www.w3.org/2000/svg" width="22" height="22" viewBox="0 0 22 22">
    <g fill="none" fill-rule="evenodd">
        <g fill="#000">
            <g>
                <path d="M11.5 4c4.142 0 7.5 3.358 7.5 7.5 0 4.142-3.358 7.5-7.5 7.5C7.358 19 4 15.642 4 11.5 4 7.358 7.358 4 11.5 4zm4.48 4.207c-.058-.163-.236-.247-.399-.19l-9.353 3.34c-.093.034-.164.109-.193.203-.05.165.043.34.207.39l2.216.673.944 2.597c.013.037.032.07.058.099.113.13.31.143.44.03l1.35-1.177 2.572 1.776c.033.022.07.039.108.047.168.039.335-.066.373-.234l1.687-7.38c.013-.058.01-.118-.01-.174zm-2.065 1.32c.026-.015.06-.01.08.013.022.026.019.066-.007.088l-4.144 3.567c-.006.005-.01.012-.011.02l-.163 1.497c-.001.012-.01.022-.021.026-.017.005-.034-.004-.04-.02l-.676-2.059c-.032-.097.008-.204.097-.256z" transform="translate(-245 -116) translate(245 116)"/>
            </g>
        </g>
    </g>
</svg>
