<svg xmlns="http://www.w3.org/2000/svg" xmlns:xlink="http://www.w3.org/1999/xlink" width="157" height="22" viewBox="0 0 157 22">
    <defs>
        <path id="6jdq0tsbca" d="M5.509 1.413c-1.692.942-3.033 2.247-4.023 3.915C.496 6.997 0 8.875 0 10.964c0 2.108.495 3.997 1.486 5.665.99 1.669 2.33 2.974 4.023 3.916 1.691.942 3.548 1.413 5.57 1.413 2.022 0 3.879-.471 5.57-1.413 1.692-.942 3.028-2.247 4.008-3.916.98-1.668 1.47-3.557 1.47-5.665 0-2.089-.49-3.967-1.47-5.636-.98-1.668-2.31-2.973-3.992-3.915C14.983.471 13.122 0 11.079 0 9.057 0 7.2.471 5.51 1.413zm2.135 15.98c-.997-.585-1.772-1.42-2.327-2.508-.554-1.088-.832-2.35-.832-3.787 0-1.436.278-2.693.832-3.77.555-1.078 1.33-1.904 2.327-2.479.996-.574 2.14-.862 3.435-.862 1.294 0 2.434.288 3.42.862.986.575 1.756 1.401 2.311 2.478.555 1.078.832 2.335.832 3.771 0 1.437-.277 2.699-.832 3.787-.555 1.087-1.325 1.923-2.311 2.508s-2.126.878-3.42.878-2.44-.293-3.435-.878z"/>
        <path id="cikodxaerc" d="M13.112 0v13.272c0 1.455-.382 2.566-1.147 3.334-.765.768-1.85 1.152-3.255 1.152-1.384 0-2.459-.384-3.223-1.152-.765-.768-1.147-1.88-1.147-3.334V0H0v13.242c0 1.823.382 3.364 1.147 4.623.765 1.26 1.803 2.208 3.115 2.843 1.312.634 2.774.952 4.386.952 1.633 0 3.115-.318 4.448-.952 1.333-.635 2.397-1.583 3.193-2.843.796-1.26 1.193-2.8 1.193-4.623V0h-4.37z"/>
        <path id="40psjboaxe" d="M14.158 0L14.158 14.495 4.337 0 0 0 0 21.108 4.337 21.108 4.337 6.644 14.158 21.108 18.496 21.108 18.496 0z"/>
        <path id="p48ul867sg" d="M0 0v21.193h11.479l7.735-10.962L11.479 0H0zm3.696 3.965h5.67l4.847 6.334-4.93 6.902H3.697V3.965z"/>
        <path id="nvfzqlcswi" d="M10.962 11.196L0 0 0 21.958 4.062 21.958 4.062 10.383 10.962 16.859 17.916 10.05 17.916 21.958 21.832 21.958 21.832 0z"/>
    </defs>
    <g fill="none" fill-rule="evenodd">
        <g>
            <g>
                <g>
                    <path fill="#010202" d="M0.084 0.042L0.084 7.25 14.505 21.788 28.926 7.25 28.926 0.042 14.505 14.58" transform="translate(-420 -39) translate(420 39)"/>
                    <path fill="#000" d="M14.505 14.58L0.084 0.042 0.084 7.25 14.505 21.788 28.926 7.25 28.926 0.042z" transform="translate(-420 -39) translate(420 39)"/>
                    <path fill="#010202" d="M0 21.788L7.854 21.788 0 13.888z" transform="translate(-420 -39) translate(420 39)"/>
                    <path fill="#000" d="M0 21.788L7.854 21.788 0 13.888z" transform="translate(-420 -39) translate(420 39)"/>
                    <path fill="#010202" d="M29.264 13.888L29.264 21.788 21.409 21.788z" transform="translate(-420 -39) translate(420 39)"/>
                    <path fill="#000" d="M21.409 21.788L29.264 21.788 29.264 13.888z" transform="translate(-420 -39) translate(420 39)"/>
                    <path fill="#010202" d="M79.53 0c2.043 0 3.905.47 5.586 1.413 1.682.941 3.012 2.247 3.993 3.915.98 1.669 1.47 3.547 1.47 5.635 0 2.109-.49 3.998-1.47 5.666-.98 1.669-2.316 2.974-4.008 3.916-1.692.942-3.549 1.413-5.57 1.413-2.022 0-3.88-.471-5.571-1.413-1.692-.942-3.033-2.247-4.023-3.916-.99-1.668-1.486-3.557-1.486-5.666 0-2.088.496-3.966 1.486-5.635.99-1.668 2.331-2.974 4.023-3.915C75.652.47 77.509 0 79.53 0m0 3.987c-1.294 0-2.439.288-3.435.862-.997.575-1.772 1.4-2.326 2.478-.555 1.078-.832 2.335-.832 3.771 0 1.437.277 2.699.832 3.787.554 1.087 1.33 1.923 2.326 2.508s2.141.877 3.435.877c1.295 0 2.434-.292 3.42-.877.986-.585 1.757-1.42 2.311-2.508.555-1.088.832-2.35.832-3.787 0-1.436-.277-2.693-.832-3.77-.554-1.078-1.325-1.904-2.31-2.479-.987-.574-2.126-.862-3.42-.862" transform="translate(-420 -39) translate(420 39)"/>
                    <g transform="translate(-420 -39) translate(420 39) translate(68.451)">
                        <mask id="op1sd6rnxb" fill="#fff">
                            <use xlink:href="#6jdq0tsbca"/>
                        </mask>
                        <path fill="#000" d="M-0.136 22.094L22.263 22.094 22.263 -0.136 -0.136 -0.136z" mask="url(#op1sd6rnxb)"/>
                    </g>
                    <path fill="#010202" d="M102.394 22c1.632 0 3.115-.318 4.448-.953 1.333-.634 2.397-1.582 3.193-2.842.795-1.26 1.193-2.8 1.193-4.623V.34h-4.37v13.272c0 1.455-.383 2.566-1.148 3.334-.764.768-1.849 1.152-3.254 1.152-1.385 0-2.46-.384-3.224-1.152-.764-.768-1.147-1.88-1.147-3.334V.34h-4.34v13.242c0 1.823.383 3.364 1.148 4.623.764 1.26 1.803 2.208 3.115 2.842 1.312.635 2.774.953 4.386.953" transform="translate(-420 -39) translate(420 39)"/>
                    <g transform="translate(-420 -39) translate(420 39) translate(93.746 .34)">
                        <mask id="9r5t8r22cd" fill="#fff">
                            <use xlink:href="#cikodxaerc"/>
                        </mask>
                        <path fill="#000" d="M-0.136 21.796L17.618 21.796 17.618 -0.137 -0.136 -0.137z" mask="url(#9r5t8r22cd)"/>
                    </g>
                    <path fill="#010202" d="M119.408 21.405L119.408 6.941 129.229 21.405 133.567 21.405 133.567 0.297 129.229 0.297 129.229 14.792 119.408 0.297 115.071 0.297 115.071 21.405z" transform="translate(-420 -39) translate(420 39)"/>
                    <g transform="translate(-420 -39) translate(420 39) translate(115.07 .297)">
                        <mask id="jx5o977eff" fill="#fff">
                            <use xlink:href="#40psjboaxe"/>
                        </mask>
                        <path fill="#000" d="M-0.136 21.245L18.631 21.245 18.631 -0.137 -0.136 -0.137z" mask="url(#jx5o977eff)"/>
                    </g>
                    <path fill="#010202" d="M148.803.255l7.735 10.23-7.735 10.963h-11.478V.255h11.478zm-2.111 3.965h-5.671v13.235h5.587l4.93-6.901-4.846-6.334z" transform="translate(-420 -39) translate(420 39)"/>
                    <g transform="translate(-420 -39) translate(420 39) translate(137.325 .255)">
                        <mask id="if2vla012h" fill="#fff">
                            <use xlink:href="#p48ul867sg"/>
                        </mask>
                        <path fill="#000" d="M-0.136 21.33L19.35 21.33 19.35 -0.137 -0.136 -0.137z" mask="url(#if2vla012h)"/>
                    </g>
                    <path fill="#010202" d="M43.452 22L43.452 0.042 54.414 11.238 65.284 0.042 65.284 22 61.368 22 61.368 10.093 54.414 16.902 47.514 10.425 47.514 22z" transform="translate(-420 -39) translate(420 39)"/>
                    <g transform="translate(-420 -39) translate(420 39) translate(43.452 .042)">
                        <mask id="5yg9o81sij" fill="#fff">
                            <use xlink:href="#nvfzqlcswi"/>
                        </mask>
                        <path fill="#000" d="M-0.136 22.094L21.968 22.094 21.968 -0.137 -0.136 -0.137z" mask="url(#5yg9o81sij)"/>
                    </g>
                </g>
            </g>
        </g>
    </g>
</svg>
