<svg xmlns="http://www.w3.org/2000/svg" xmlns:xlink="http://www.w3.org/1999/xlink" width="100" height="14" viewBox="0 0 100 14">
    <defs>
        <path id="lhqym3vswa" d="M3.509.9C2.43 1.497 1.577 2.328.946 3.39.316 4.454 0 5.649 0 6.978c0 1.342.315 2.544.946 3.605.63 1.062 1.485 1.893 2.563 2.492 1.077.6 2.26.899 3.548.899 1.288 0 2.47-.3 3.548-.899 1.077-.6 1.928-1.43 2.552-2.492.625-1.061.937-2.263.937-3.605 0-1.33-.312-2.524-.937-3.586-.624-1.062-1.471-1.893-2.542-2.492C9.544.3 8.358 0 7.057 0c-1.288 0-2.47.3-3.548.9zm1.36 10.168c-.635-.372-1.129-.904-1.482-1.596-.353-.692-.53-1.495-.53-2.41 0-.914.177-1.714.53-2.4.353-.685.847-1.21 1.481-1.576.635-.366 1.364-.549 2.189-.549.824 0 1.55.183 2.178.549.628.366 1.119.891 1.472 1.577.353.685.53 1.485.53 2.4 0 .914-.177 1.717-.53 2.409-.353.692-.844 1.224-1.472 1.596-.628.373-1.354.559-2.178.559-.825 0-1.554-.186-2.189-.559z"/>
        <path id="zw6rzr6azc" d="M8.351 0v8.446c0 .926-.243 1.633-.73 2.121-.487.49-1.178.734-2.073.734-.882 0-1.566-.245-2.053-.734-.487-.488-.731-1.195-.731-2.121V0H0v8.427c0 1.16.244 2.14.73 2.942.488.802 1.149 1.405 1.985 1.809.835.403 1.767.606 2.793.606 1.04 0 1.985-.203 2.834-.606.848-.404 1.526-1.007 2.033-1.81.507-.8.76-1.781.76-2.941V0H8.351z"/>
        <path id="i2xs4b3ime" d="M9.018 0L9.018 9.224 2.763 0 0 0 0 13.432 2.763 13.432 2.763 4.228 9.018 13.432 11.781 13.432 11.781 0z"/>
        <path id="eikrecbvxg" d="M0 0v13.486h7.311l4.927-6.976L7.311 0H0zm2.354 2.523h3.612l3.087 4.03-3.14 4.393H2.354V2.523z"/>
        <path id="zwb8wqum0i" d="M6.982 7.124L0 0 0 13.973 2.587 13.973 2.587 6.607 6.982 10.729 11.411 6.395 11.411 13.973 13.906 13.973 13.906 0z"/>
    </defs>
    <g fill="none" fill-rule="evenodd">
        <g>
            <g>
                <path fill="#010202" d="M0.054 0.027L0.054 4.614 9.239 13.865 18.424 4.614 18.424 0.027 9.239 9.278" transform="translate(-20 -120) translate(20 120)"/>
                <path fill="#000" d="M9.239 9.278L0.054 0.027 0.054 4.614 9.239 13.865 18.424 4.614 18.424 0.027z" transform="translate(-20 -120) translate(20 120)"/>
                <path fill="#010202" d="M0 13.865L5.003 13.865 0 8.838z" transform="translate(-20 -120) translate(20 120)"/>
                <path fill="#000" d="M0 13.865L5.003 13.865 0 8.838z" transform="translate(-20 -120) translate(20 120)"/>
                <path fill="#010202" d="M18.639 8.838L18.639 13.865 13.637 13.865z" transform="translate(-20 -120) translate(20 120)"/>
                <path fill="#000" d="M13.637 13.865L18.639 13.865 18.639 8.838z" transform="translate(-20 -120) translate(20 120)"/>
                <path fill="#010202" d="M50.656 0c1.301 0 2.487.3 3.558.899 1.071.6 1.919 1.43 2.543 2.492.624 1.061.936 2.257.936 3.586 0 1.342-.312 2.543-.936 3.605-.624 1.062-1.475 1.893-2.553 2.492-1.077.6-2.26.899-3.548.899-1.288 0-2.47-.3-3.548-.9-1.077-.598-1.932-1.429-2.562-2.49-.631-1.063-.946-2.264-.946-3.606 0-1.33.315-2.525.946-3.586.63-1.062 1.485-1.893 2.562-2.492C48.186.299 49.368 0 50.656 0m0 2.537c-.824 0-1.553.183-2.188.549-.635.365-1.128.891-1.482 1.577-.353.685-.53 1.485-.53 2.4 0 .914.177 1.717.53 2.409.354.692.847 1.224 1.482 1.596.635.373 1.364.559 2.188.559.825 0 1.55-.186 2.179-.559.628-.372 1.118-.904 1.472-1.596.353-.692.53-1.495.53-2.41 0-.914-.177-1.714-.53-2.4-.354-.685-.844-1.21-1.472-1.576-.628-.366-1.354-.549-2.179-.549" transform="translate(-20 -120) translate(20 120)"/>
                <g transform="translate(-20 -120) translate(20 120) translate(43.6)">
                    <mask id="02aq4atxvb" fill="#fff">
                        <use xlink:href="#lhqym3vswa"/>
                    </mask>
                    <path fill="#000" d="M-0.087 14.06L14.18 14.06 14.18 -0.087 -0.087 -0.087z" mask="url(#02aq4atxvb)"/>
                </g>
                <path fill="#010202" d="M65.219 14c1.04 0 1.984-.202 2.833-.606.85-.404 1.527-1.007 2.034-1.809.507-.801.76-1.782.76-2.942V.216h-2.784v8.446c0 .926-.243 1.633-.73 2.122-.487.489-1.178.733-2.073.733-.882 0-1.567-.244-2.054-.733-.487-.49-.73-1.196-.73-2.122V.216H59.71v8.427c0 1.16.243 2.14.73 2.942s1.149 1.405 1.984 1.809c.836.404 1.767.606 2.794.606" transform="translate(-20 -120) translate(20 120)"/>
                <g transform="translate(-20 -120) translate(20 120) translate(59.71 .216)">
                    <mask id="dmcvp23vid" fill="#fff">
                        <use xlink:href="#zw6rzr6azc"/>
                    </mask>
                    <path fill="#000" d="M-0.086 13.87L11.222 13.87 11.222 -0.087 -0.086 -0.087z" mask="url(#dmcvp23vid)"/>
                </g>
                <path fill="#010202" d="M76.056 13.622L76.056 4.417 82.312 13.622 85.074 13.622 85.074 0.189 82.312 0.189 82.312 9.413 76.056 0.189 73.293 0.189 73.293 13.622z" transform="translate(-20 -120) translate(20 120)"/>
                <g transform="translate(-20 -120) translate(20 120) translate(73.293 .19)">
                    <mask id="auollwh9of" fill="#fff">
                        <use xlink:href="#i2xs4b3ime"/>
                    </mask>
                    <path fill="#000" d="M-0.087 13.519L11.867 13.519 11.867 -0.087 -0.087 -0.087z" mask="url(#auollwh9of)"/>
                </g>
                <path fill="#010202" d="M94.78.162l4.926 6.51-4.927 6.977h-7.311V.162h7.311zm-1.346 2.523h-3.612v8.423h3.56l3.139-4.392-3.087-4.03z" transform="translate(-20 -120) translate(20 120)"/>
                <g transform="translate(-20 -120) translate(20 120) translate(87.468 .162)">
                    <mask id="wl0ckylash" fill="#fff">
                        <use xlink:href="#eikrecbvxg"/>
                    </mask>
                    <path fill="#000" d="M-0.087 13.573L12.325 13.573 12.325 -0.087 -0.087 -0.087z" mask="url(#wl0ckylash)"/>
                </g>
                <path fill="#010202" d="M27.677 14L27.677 0.027 34.658 7.152 41.582 0.027 41.582 14 39.088 14 39.088 6.423 34.658 10.756 30.264 6.634 30.264 14z" transform="translate(-20 -120) translate(20 120)"/>
                <g transform="translate(-20 -120) translate(20 120) translate(27.677 .027)">
                    <mask id="xtpx5o778j" fill="#fff">
                        <use xlink:href="#zwb8wqum0i"/>
                    </mask>
                    <path fill="#000" d="M-0.086 14.06L13.992 14.06 13.992 -0.087 -0.086 -0.087z" mask="url(#xtpx5o778j)"/>
                </g>
            </g>
        </g>
    </g>
</svg>
